<svg xmlns="http://www.w3.org/2000/svg" width="512" height="512" viewBox="0 0 512 512" version="1.1">
	<path d="M 256.571 1.571 C 255.707 2.436, 255 3.544, 255 4.034 C 255 4.524, 253.180 32.030, 250.956 65.159 C 248.732 98.288, 247.045 126.223, 247.206 127.237 C 247.409 128.509, 249.104 126.667, 252.677 121.290 C 260.471 109.563, 268.469 100.594, 278.914 91.866 C 284.092 87.540, 288.618 84, 288.971 84 C 289.325 84, 291.666 86.813, 294.174 90.250 C 319.473 124.928, 333.247 176.395, 334.717 241.750 C 335.030 255.638, 335.013 267, 334.680 267 C 334.346 267, 312.379 254.787, 285.863 239.861 C 259.348 224.935, 236.912 212.528, 236.006 212.291 C 233.867 211.732, 208.741 228.602, 195.056 239.786 C 166.357 263.239, 137.046 298.254, 119.560 329.972 C 116.991 334.632, 114.736 338.598, 114.549 338.784 C 114.362 338.971, 114.401 334.259, 114.635 328.312 C 116.201 288.610, 119.163 255.087, 123.544 227.500 C 129.548 189.698, 131.014 178.854, 131.592 168 L 132.205 156.500 128.724 161.500 C 123.189 169.449, 117.175 175.799, 110.084 181.182 C 103.367 186.280, 89.252 193.613, 80.802 196.394 C 74.584 198.441, 56.993 202, 53.093 202 C 49.439 202, 49.392 202.322, 51.481 213.240 C 54.758 230.364, 58.356 272.260, 60.477 318 C 62.029 351.444, 62.812 356.675, 67.894 367.500 C 71.578 375.348, 79.007 385.084, 84.840 389.707 C 87.403 391.738, 89.876 393.708, 90.334 394.084 C 90.793 394.461, 89.343 398.542, 87.110 403.154 C 79.679 418.507, 79.031 423.019, 79.025 459.500 C 79.020 490.934, 79.061 491.588, 81.353 496.500 C 82.636 499.250, 85.530 503.162, 87.783 505.194 C 95.578 512.220, 92.294 512, 189.258 512 L 276.154 512 278.987 509.167 L 281.821 506.333 284.495 509.167 L 287.170 512 352.439 512 L 417.708 512 420.354 509.548 C 422.599 507.468, 423 506.259, 423 501.585 C 423 492.865, 419.703 485.528, 412.588 478.412 C 404.794 470.619, 398.348 468, 386.962 468 L 379 468 379 416.196 L 379 364.393 376.412 359.199 C 373.112 352.577, 367 347.346, 360.277 345.392 C 357.375 344.548, 355 343.707, 355 343.522 C 355 343.338, 356.278 340.332, 357.840 336.843 C 363.378 324.474, 369.848 301.482, 371.533 288.179 C 371.904 285.252, 372.723 282.726, 373.354 282.565 C 373.984 282.405, 376.750 281.741, 379.500 281.090 C 382.250 280.440, 389.225 277.195, 395 273.880 L 405.500 267.853 405.661 245.676 C 406.147 178.860, 422.468 119.304, 449.244 86.639 L 451.589 83.778 459.045 89.713 C 469.114 97.729, 479.839 109.424, 486.699 119.866 C 493.498 130.217, 492.914 129.426, 493.384 128.917 C 493.595 128.688, 491.877 100.248, 489.567 65.719 C 484.989 -2.701, 485.135 -1.749, 479.576 0.783 C 478.202 1.410, 459.068 14.539, 437.056 29.961 L 397.034 58 370.267 57.987 L 343.500 57.973 302.021 28.987 C 279.208 13.044, 260.002 0, 259.342 0 C 258.683 0, 257.436 0.707, 256.571 1.571 M 284.636 166.636 C 280.939 170.334, 281.051 175.205, 284.923 179.077 C 286.531 180.685, 288.803 182, 289.973 182 C 293.458 182, 297.637 179.291, 298.917 176.201 C 302.573 167.373, 291.390 159.883, 284.636 166.636 M 443.636 166.636 C 439.775 170.497, 439.963 175.950, 444.077 179.411 C 445.769 180.835, 448.041 182, 449.126 182 C 452.847 182, 456.802 179.130, 457.974 175.579 C 460.888 166.748, 450.194 160.078, 443.636 166.636" stroke="none" fill="black" fill-rule="evenodd"/>
</svg>